<svg width="240" height="200" viewBox="120 20 160 160" xmlns="http://www.w3.org/2000/svg" shape-rendering="crispEdges">

  <!-- ===== LEAF ===== -->
  <rect x="180" y="40" width="20" height="20" fill="#2ECC71"></rect>
  <rect x="200" y="20" width="20" height="20" fill="#2ECC71"></rect>
  <rect x="220" y="40" width="20" height="20" fill="#2ECC71"></rect>
  <rect x="200" y="40" width="20" height="20" fill="#27AE60"></rect>

  <!-- ===== TOMATO BODY ===== -->

  <!-- Row 1 -->
  <rect x="140" y="80" width="20" height="20" fill="#E63946"></rect>
  <rect x="160" y="80" width="20" height="20" fill="#E63946"></rect>
  <rect x="180" y="80" width="20" height="20" fill="#E63946"></rect>
  <rect x="200" y="80" width="20" height="20" fill="#E63946"></rect>
  <rect x="220" y="80" width="20" height="20" fill="#E63946"></rect>
  <rect x="240" y="80" width="20" height="20" fill="#E63946"></rect>

  <!-- Row 2 -->
  <rect x="120" y="100" width="20" height="20" fill="#E63946"></rect>
  <rect x="140" y="100" width="20" height="20" fill="#E63946"></rect>
  <rect x="160" y="100" width="20" height="20" fill="#E63946"></rect>
  <rect x="180" y="100" width="20" height="20" fill="#FF4D5A"></rect>
  <rect x="200" y="100" width="20" height="20" fill="#FF4D5A"></rect>
  <rect x="220" y="100" width="20" height="20" fill="#E63946"></rect>
  <rect x="240" y="100" width="20" height="20" fill="#E63946"></rect>
  <rect x="260" y="100" width="20" height="20" fill="#E63946"></rect>

  <!-- Row 3 -->
  <rect x="120" y="120" width="20" height="20" fill="#E63946"></rect>
  <rect x="140" y="120" width="20" height="20" fill="#E63946"></rect>
  <rect x="160" y="120" width="20" height="20" fill="#FF4D5A"></rect>
  <rect x="180" y="120" width="20" height="20" fill="#FF4D5A"></rect>
  <rect x="200" y="120" width="20" height="20" fill="#FFFFFF"></rect>
  <rect x="220" y="120" width="20" height="20" fill="#FF4D5A"></rect>
  <rect x="240" y="120" width="20" height="20" fill="#E63946"></rect>
  <rect x="260" y="120" width="20" height="20" fill="#E63946"></rect>

  <!-- Row 4 -->
  <rect x="140" y="140" width="20" height="20" fill="#E63946"></rect>
  <rect x="160" y="140" width="20" height="20" fill="#FF4D5A"></rect>
  <rect x="180" y="140" width="20" height="20" fill="#FF4D5A"></rect>
  <rect x="200" y="140" width="20" height="20" fill="#FF4D5A"></rect>
  <rect x="220" y="140" width="20" height="20" fill="#FF4D5A"></rect>
  <rect x="240" y="140" width="20" height="20" fill="#E63946"></rect>

  <!-- Bottom -->
  <rect x="160" y="160" width="20" height="20" fill="#E63946"></rect>
  <rect x="180" y="160" width="20" height="20" fill="#E63946"></rect>
  <rect x="200" y="160" width="20" height="20" fill="#E63946"></rect>
  <rect x="220" y="160" width="20" height="20" fill="#E63946"></rect>

  <!-- ===== 8-BIT CLOCK DETAIL ===== -->
  <rect x="190" y="110" width="20" height="20" fill="#000000"></rect>
  <rect x="198" y="118" width="4" height="10" fill="#F4D35E"></rect>
  <rect x="198" y="118" width="8" height="4" fill="#F4D35E"></rect>

</svg>